<?xml version="1.0" encoding="utf-8"?>
<!-- Generator: Adobe Illustrator 27.0.0, SVG Export Plug-In . SVG Version: 6.00 Build 0)  -->
<svg version="1.1" id="Capa_1" xmlns="http://www.w3.org/2000/svg" xmlns:xlink="http://www.w3.org/1999/xlink" x="0px" y="0px"
	 viewBox="0 0 792 612" style="enable-background:new 0 0 792 612;" xml:space="preserve">
<style type="text/css">
	.st0{fill:url(#SVGID_1_);}
	.st1{fill:url(#SVGID_00000158007427557947365860000010741606398899396502_);}
	.st2{fill:url(#SVGID_00000131328977904327906920000017306784181701383567_);}
	.st3{fill:url(#SVGID_00000015341619453166504440000006986249986891519898_);}
	.st4{fill:url(#SVGID_00000078760188817549122660000004897642424691248003_);}
	.st5{fill:#0B057A;}
	.st6{fill:url(#SVGID_00000011743085927825420090000015189592558654430594_);}
</style>
<g>
	<linearGradient id="SVGID_1_" gradientUnits="userSpaceOnUse" x1="333.4349" y1="410.3656" x2="223.9841" y2="197.6759">
		<stop  offset="0" style="stop-color:#A170EF"/>
		<stop  offset="0.2702" style="stop-color:#7C56D2"/>
		<stop  offset="0.8686" style="stop-color:#20148A"/>
		<stop  offset="1" style="stop-color:#0B057A"/>
	</linearGradient>
	<path class="st0" d="M337.01,405.06c-10-10.24-34.01-58.13-49.17-88.15c-15.88-31.45-32.16-65.96-38.19-80.85
		c-8.99-22.17-4.09-35.33-6.39-49.78c-1.12-7.04-11.7-9.67-16.35-5.6l-18.64,16.34c-3.86,3.38-9.8,0.46-7.21,5.76
		c5.94,12.13,27.24,16.94,39.74,36.28c5.76,8.92,28.36,45.77,45.79,80.44c13.8,27.44,38.03,78.71,41.42,92.05
		c1.05,4.13,0.21,16.23,9.75,16.23c2.22,0,7.96-1.6,8.55-7.62C347.3,410.03,339.61,407.72,337.01,405.06z"/>
	
		<linearGradient id="SVGID_00000103234295947670507550000004689545404984294024_" gradientUnits="userSpaceOnUse" x1="2665.1877" y1="231.3003" x2="2630.4087" y2="346.6096" gradientTransform="matrix(-0.731 0.6824 -0.6824 -0.731 2373.2231 -1367.2618)">
		<stop  offset="0" style="stop-color:#A170EF"/>
		<stop  offset="0.2973" style="stop-color:#6B4AC5"/>
		<stop  offset="0.6211" style="stop-color:#38259D"/>
		<stop  offset="0.8655" style="stop-color:#170E83"/>
		<stop  offset="1" style="stop-color:#0B057A"/>
	</linearGradient>
	<path style="fill:url(#SVGID_00000103234295947670507550000004689545404984294024_);" d="M260.55,293.61
		c4.86,5.06,12.25,5.62,18.01,0.53c3.56-3.15,5.93-9.98,1.11-16.65c-5-6.93-13.18-6.55-20.32-21.28
		c-1.88-3.88-8.82-15.65-13.49-37.53c-2.75-12.91,4.41-28.16-3.06-39.99c-7.9-12.49-21.54-15.1-32.31-8.95
		c-11.38,6.5-16.1,20.38-10.29,31.41c5.26,10,21.91,17.81,30.25,26.23c6.9,6.97,19.19,26.71,22.36,33.08
		C261.2,277.37,254.05,286.85,260.55,293.61z"/>
	
		<linearGradient id="SVGID_00000152259171815824789560000001663364212642922160_" gradientUnits="userSpaceOnUse" x1="223.1902" y1="187.7876" x2="178.345" y2="336.4709">
		<stop  offset="0" style="stop-color:#A170EF"/>
		<stop  offset="0.2973" style="stop-color:#6B4AC5"/>
		<stop  offset="0.6211" style="stop-color:#38259D"/>
		<stop  offset="0.8655" style="stop-color:#170E83"/>
		<stop  offset="1" style="stop-color:#0B057A"/>
	</linearGradient>
	<path style="fill:url(#SVGID_00000152259171815824789560000001663364212642922160_);" d="M246.47,191.2
		c0-13.28-11.15-24.65-24.42-24.65c-13.28,0-24.34,11.15-24.34,24.43c0,2.24,0.56,6.78,0.62,7.33c0,0.02,4.56,19,2.68,36.09
		c-1.13,10.32-14.02,61.12-19.16,77.26c-1.68,5.26-3.24,11.44-8.9,16.49c-2.45,2.18-5.08,8.32-1.99,13.46
		c1.12,1.86,4.43-12.36,7.82-11.38l0,0c3.45,1,8.02,11.41,8.99,9.37c1.31-2.76-0.08-8-0.37-10.73c-0.34-3.22-0.31-5.74,0.36-11.98
		c1.68-15.65,19.83-62.56,26.85-78.32c7.59-17.04,21.7-24.1,26.53-30.9C246.31,200.36,246.47,193.77,246.47,191.2z"/>
	
		<linearGradient id="SVGID_00000138572187750768082900000001016077741155537069_" gradientUnits="userSpaceOnUse" x1="342.1882" y1="394.3975" x2="343.1764" y2="256.6098">
		<stop  offset="0.0785" style="stop-color:#0B057A"/>
		<stop  offset="0.1985" style="stop-color:#2C1C93"/>
		<stop  offset="0.376" style="stop-color:#553AB4"/>
		<stop  offset="0.5493" style="stop-color:#7652CE"/>
		<stop  offset="0.7145" style="stop-color:#8E62E0"/>
		<stop  offset="0.8685" style="stop-color:#9C6DEB"/>
		<stop  offset="1" style="stop-color:#A170EF"/>
	</linearGradient>
	<path style="fill:url(#SVGID_00000138572187750768082900000001016077741155537069_);" d="M361.03,252.17
		c1.92-4.65-4.67-8.02-9.61-7.06l-19.8,3.85c-4.1,0.8-7.83,2.06-6.15,5.88c3.84,8.75,9.22,25.63,10.73,41.48
		c1.25,13.09,2.16,82.19-1.19,101.02c-1.22,6.88-4.9,10.09-5.64,20.4c-0.33,4.58,2.6,10.02,8.39,10.02c5.79,0,8.64-4.46,8.62-8.86
		c-0.04-9.41-2.55-15.8-2.93-19.1c-2.24-19.74,1.31-83.06,4.08-104.62C349.64,278.77,357.08,261.72,361.03,252.17z"/>
	
		<linearGradient id="SVGID_00000175284657973028873190000008504081893242168727_" gradientUnits="userSpaceOnUse" x1="183.1405" y1="337.8307" x2="348.7193" y2="241.0651">
		<stop  offset="0" style="stop-color:#A170EF"/>
		<stop  offset="0.2038" style="stop-color:#7752CE"/>
		<stop  offset="0.4596" style="stop-color:#4931AA"/>
		<stop  offset="0.687" style="stop-color:#271990"/>
		<stop  offset="0.8749" style="stop-color:#120A80"/>
		<stop  offset="1" style="stop-color:#0B057A"/>
	</linearGradient>
	<path style="fill:url(#SVGID_00000175284657973028873190000008504081893242168727_);" d="M359.95,245.39
		c0-11.03-5.71-18.63-16.74-18.63c-4.54,0-5.56,2.53-8.92,5.09c-8.09,5.14-10.53,15.7-23.68,25.93
		c-6.22,4.84-32.27,22.37-57.28,36.57c-19.8,11.24-52.2,30.15-71.49,30.31c-7.83,0.06-12.35,5.81-12.35,12.02
		c0,4.47,3.08,9.04,9.14,8.99c6.37-0.05,9.51-3.13,13.55-7.99c13.25-15.94,40.63-28.76,62.28-41.12
		c22.68-12.95,47.94-25,58.91-29.75c9.5-4.1,18.59-7.71,25.79-6.87c0.68,0.16,8.71,1.17,14.66-3.05S359.95,248.09,359.95,245.39z"/>
	<g>
		<path class="st5" d="M364.86,290.92h1.64c1.29,0,2.33,1.04,2.33,2.33v52.5c0,1.29-1.04,2.33-2.33,2.33h-1.64
			c-1.29,0-2.33-1.04-2.33-2.33v-52.5C362.54,291.97,363.58,290.92,364.86,290.92z"/>
		<path class="st5" d="M383.31,290.92h1.64c1.29,0,2.33,1.04,2.33,2.33v52.5c0,1.29-1.04,2.33-2.33,2.33h-1.64
			c-1.29,0-2.33-1.04-2.33-2.33v-52.5C380.98,291.97,382.02,290.92,383.31,290.92z"/>
		<path class="st5" d="M397.85,313.38c0-14.42,8.57-23.6,24.04-23.6c15.38,0,23.95,9.18,23.95,23.6v32.37
			c0,1.29-1.04,2.33-2.33,2.33h-1.64c-1.29,0-2.33-1.04-2.33-2.33v-32.37c0-11.01-6.12-17.83-17.66-17.83
			c-11.62,0-17.74,6.82-17.74,17.83v32.37c0,1.29-1.04,2.33-2.33,2.33h-1.64c-1.29,0-2.33-1.04-2.33-2.33V313.38z"/>
		<path class="st5" d="M455.9,332h1.56c1.15,0,2.09,0.85,2.3,1.99c1.1,6.03,6.25,9.46,14.47,9.46c9.09,0,14.68-4.46,14.68-11.45
			c0-7.52-7.25-8.83-15.03-9.96c-9.26-1.31-19.23-3.06-19.23-15.21c0-10.14,7.87-17.04,19.67-17.04c10.42,0,17.71,5.35,19.28,13.73
			c0.27,1.44-0.82,2.79-2.29,2.79h-1.44c-1.11,0-2.01-0.81-2.24-1.89c-1.14-5.46-5.91-8.86-13.31-8.86c-8.3,0-13.55,4.37-13.55,11.1
			c0,7.34,7.17,8.57,14.95,9.79c9.27,1.49,19.32,3.15,19.32,15.38c0,10.66-8.22,17.39-20.8,17.39c-11.32,0-19.15-5.45-20.64-14.5
			C453.37,333.3,454.47,332,455.9,332z"/>
		<path class="st5" d="M519.33,322.38l-20.34-27.76c-1.13-1.54-0.03-3.7,1.88-3.7h1.81c0.75,0,1.46,0.36,1.9,0.98l16.55,23.19
			c0.93,1.3,2.87,1.3,3.79,0l16.46-23.18c0.44-0.61,1.14-0.98,1.9-0.98h1.64c1.91,0,3,2.17,1.88,3.7l-20.26,27.67
			c-0.29,0.4-0.45,0.88-0.45,1.38v22.08c0,1.29-1.04,2.33-2.33,2.33h-1.64c-1.29,0-2.33-1.04-2.33-2.33v-21.99
			C519.78,323.27,519.62,322.78,519.33,322.38z"/>
		<path class="st5" d="M553.27,332h1.56c1.15,0,2.09,0.85,2.3,1.99c1.1,6.03,6.25,9.46,14.47,9.46c9.09,0,14.68-4.46,14.68-11.45
			c0-7.52-7.25-8.83-15.03-9.96c-9.26-1.31-19.23-3.06-19.23-15.21c0-10.14,7.87-17.04,19.67-17.04c10.42,0,17.71,5.35,19.28,13.73
			c0.27,1.44-0.82,2.79-2.29,2.79h-1.44c-1.11,0-2.01-0.81-2.24-1.89c-1.14-5.46-5.91-8.86-13.31-8.86c-8.3,0-13.55,4.37-13.55,11.1
			c0,7.34,7.17,8.57,14.95,9.79c9.27,1.49,19.32,3.15,19.32,15.38c0,10.66-8.22,17.39-20.8,17.39c-11.32,0-19.15-5.45-20.64-14.5
			C550.74,333.3,551.83,332,553.27,332z"/>
	</g>
	
		<linearGradient id="SVGID_00000111164268089786401930000007993891732300682161_" gradientUnits="userSpaceOnUse" x1="2671.1191" y1="-1859.9515" x2="2642.8645" y2="-1766.2738" gradientTransform="matrix(-0.6824 -0.731 0.731 -0.6824 3450.8049 964.3868)">
		<stop  offset="0" style="stop-color:#A170EF"/>
		<stop  offset="0.2973" style="stop-color:#6B4AC5"/>
		<stop  offset="0.6211" style="stop-color:#38259D"/>
		<stop  offset="0.8655" style="stop-color:#170E83"/>
		<stop  offset="1" style="stop-color:#0B057A"/>
	</linearGradient>
	<path style="fill:url(#SVGID_00000111164268089786401930000007993891732300682161_);" d="M262.11,275.33
		c-6.08,4.47-5.97,12.03-2.59,16.99c3.74,5.5,11.57,7.27,17.81,3.17c6.62-4.34,8.11-14.34,16.56-19.15c6-3.41,8.32-5.1,28.46-12.28
		c8.57-3.05,19.99,3.21,32.44-3.17c5.23-2.68,11.1-15.52,4.95-26.29c-6.5-11.38-18.42-12.68-27.89-7.49
		c-9.91,5.43-9.15,18.93-15.6,24.56c-16.3,14.22-20.1,14.46-27.5,18.54C281.83,274.02,270.45,269.21,262.11,275.33z"/>
</g>
</svg>
